<?xml version="1.0" encoding="UTF-8"?>
<svg version="1.1" viewBox="0 0 32 32" xmlns="http://www.w3.org/2000/svg">
<title>icon 143 box</title>
<desc>Created with Sketch.</desc>
<g fill="none" fill-rule="evenodd">
<g fill="#fff">
<path d="m5 13v15h23v-15h2v-8h-27v8h2zm1 0v14h21v-14h-21zm-2-7v6h25v-6h-25zm9.9974 12c-1.1031 0-1.9974 0.88773-1.9974 2 0 1.1046 0.89586 2 1.9974 2h5.0052c1.1031 0 1.9974-0.88773 1.9974-2 0-1.1046-0.89586-2-1.9974-2h-5.0052zm0.0055376 1c-0.5539 0-1.0029 0.44386-1.0029 1 0 0.55228 0.43788 1 1.0029 1h4.9941c0.5539 0 1.0029-0.44386 1.0029-1 0-0.55228-0.43788-1-1.0029-1h-4.9941z"/>
</g>
</g>
</svg>
